<?xml version="1.0" ?><svg height="64px" version="1.1" viewBox="0 0 64 64" width="64px" xmlns="http://www.w3.org/2000/svg" xmlns:xlink="http://www.w3.org/1999/xlink"><title/><desc/><g fill="none" fill-rule="evenodd" id="Plus" stroke="none" stroke-width="1"><path d="M31.5,13 C32.8807119,13 34,14.1192881 34,15.5 L34,47.5 C34,48.8807119 32.8807119,50 31.5,50 C30.1192881,50 29,48.8807119 29,47.5 L29,15.5 C29,14.1192881 30.1192881,13 31.5,13 Z" fill="#0d6efd" id="Rectangle"/><path d="M50,31.5 C50,32.8807119 48.8807119,34 47.5,34 L15.5,34 C14.1192881,34 13,32.8807119 13,31.5 C13,30.1192881 14.1192881,29 15.5,29 L47.5,29 C48.8807119,29 50,30.1192881 50,31.5 Z" fill="#0d6efd" id="Rectangle"/></g></svg>